<svg xmlns="http://www.w3.org/2000/svg" xmlns:xlink="http://www.w3.org/1999/xlink" width="256" height="113.197" viewBox="0 0 256 113.197"><defs><style>.a{fill:none;}.b{fill:#c0222c;}.c{fill:#fff;}.d{clip-path:url(#a);}.e{fill:#421b59;}</style><clipPath id="a"><path class="a" d="M0,0H121.716V75.411H0Z"/></clipPath></defs><path class="b" d="M14.2,0H97.082a14.2,14.2,0,0,1,14.2,14.111v61.3L91.212,59.056c-7.558-6.155-10.177-6.527-16.077-7H14.2A14.2,14.2,0,0,1,0,37.943V14.111A14.2,14.2,0,0,1,14.2,0" transform="translate(22.827 11.027)"/><path class="c" d="M7.678,23.074c0,.607,0,1.605-.645,1.605l-3.194.107c-.466.036-.645-.428-.753-.82L.18,1.641A8.671,8.671,0,0,1,0,.392C0,.071.789.035,1.507.035c.789,0,1.865.072,2.44.072l.215.249L5.7,16.226,7.427,1C7.535.035,8.719,0,9.543,0c.036,0,.467.035,1.22.035C11.947.356,13.131,8.7,14.172,16.8L16,1.07C16.074.356,17.293.035,18.262.035c.9,0,1.794.285,1.794.713,0,.072-.036.108-.036.143L17.006,24.144c-.18.464-.539.679-4.162.785-.574,0-.753-.713-.825-1.14L9.687,9.094Z" transform="translate(35.327 23.892)"/><path class="c" d="M0,.7C0-.192,1.076.023,1.65.023c.395,0,2.225.035,2.225.856l.18,11.448H6.889L6.961,1.2A.686.686,0,0,1,7.678.522c.251,0,2.4.107,2.4.107L10.3.772c-.036.035.143,8.345.143,11.876,0,5.456-.143,7.489-.143,10.413a2.432,2.432,0,0,1-.539.928c-1.328,0-1.471-.107-2.691-.178-.573-.464-.467-1.677-.467-2.71,0-1.854.108-3.673.108-5.528a16,16,0,0,0-2.619,0L4.126,23.7c-.143.321-1.184.392-1.758.392C1,24.1.5,24.31.395,22.741Z" transform="translate(58.363 24.19)"/><path class="c" d="M3.66,25.107A.814.814,0,0,1,3.265,25c-.216,0-.708-.018-1.184-.036S1.112,24.929.9,24.929l-.1,0-.151,0a1.243,1.243,0,0,1-.432-.06.305.305,0,0,1-.217-.3c0-.88.305-5.209,4.233-23.966C4.343.283,5.093,0,5.489,0H7.677c.775,0,1.269.866,1.472,1.677l.008.03c.183.648.74,2.621,2.753,22.082v.748c0,.172-.722.215-.824.215a5.956,5.956,0,0,1-.646.107h-2.3l-.179-.143-.144-3.5c0-.228-.023-.251-.123-.251H7.39c-.212,0-.85.017-1.526.034s-1.393.036-1.63.036c-.138,1.159-.285,2.52-.323,3.816l-.021.043C3.83,25.021,3.788,25.107,3.66,25.107Zm2.762-18.4L4.843,17.191H7.57L6.421,6.705Z" transform="translate(71.782 23.463)"/><path class="c" d="M2.8,14.622c0-3.281.215-6.955.215-10.306,0-.642-.251-.642-.574-.642H2.332c-.467,0-.933.072-1.363.072C.287,3.745,0,3.709,0,3.067A24.76,24.76,0,0,1,.143.321C.143.035.789,0,2.619,0c2.8,0,7.068.143,7.211.143l.144.178c0,.036.108,1.534.108,2.069,0,1.426-.18,1.462-1.328,1.462-.717,0-1.435-.178-2.153-.178,0,1.32-.108,7.24-.108,8.56a58.908,58.908,0,0,1,.179,7.382c0,.606-.036,3.459-.036,4.1-.215.713-1.686.713-2.26.713H4.27c-.718,0-1.184,0-1.4-.713,0-1.391-.071-7.739-.071-9.094" transform="translate(84.879 24.07)"/><path class="c" d="M0,.286C.251-.285,3.8.036,3.8.927c-.072,7.276,0,14.516,0,21.791v.642a.388.388,0,0,1-.324.428c-.071,0-.179.036-.252.036a11.511,11.511,0,0,1-2.3.321c-.251,0-.323.035-.467-.107-.143-.072-.215-.357-.286-.5Z" transform="translate(105.941 24.284)"/><path class="c" d="M.072,19.9A5.63,5.63,0,0,1,0,19.258v-.534c0-.784.143-3.1,1.148-3.1H2.977a.95.95,0,0,1,.755.82v3.923a.958.958,0,0,0,.9,1c1.113,0,1.113-.963,1.113-1.676C5.74,13.2.108,14.052.108,6.741.108,2.64,1.83,0,6.315,0,9.543,0,9.938,2.924,9.938,5.564v.641c0,.143-.036,4.1-.825,4.1H7.032c-.539,0-.61-.642-.61-3.673a10.406,10.406,0,0,1,.036-1.07V5.457c0-1.106,0-2.1-1.041-2.1-1.076,0-1.865,1.284-1.865,3.031A7.59,7.59,0,0,0,5.92,11.7C7.642,13.41,9.4,16.369,9.4,18.831c0,3.745-.287,5.92-4.486,5.92a5.158,5.158,0,0,1-3.8-1.926l-.9-1.711Z" transform="translate(112.722 23.927)"/><g transform="translate(134.284 37.787)"><path class="a" d="M0,0H121.716V75.411H0Z"/><g class="d"><path class="e" d="M106.19,0H15.528C6.988,0,0,6.349,0,14.11v61.3L21.949,59.056c8.266-6.156,11.132-6.527,17.584-7H106.19c8.54,0,15.527-6.349,15.527-14.11V14.11C121.716,6.349,114.73,0,106.19,0"/></g></g><path class="c" d="M0,.7C0-.192,1.076.023,1.65.023c.395,0,2.225.035,2.225.856l.18,11.448H6.889L6.961,1.2A.686.686,0,0,1,7.678.522c.252,0,2.4.107,2.4.107L10.3.772c-.036.035.143,8.345.143,11.876,0,5.456-.143,7.489-.143,10.413a2.432,2.432,0,0,1-.539.928c-1.328,0-1.471-.107-2.691-.178-.573-.464-.466-1.677-.466-2.71,0-1.854.108-3.673.108-5.528a16,16,0,0,0-2.619,0L4.126,23.7c-.144.321-1.185.392-1.758.392C1,24.1.5,24.31.395,22.741Z" transform="translate(143.622 50.949)"/><path class="c" d="M.252.571C.252.357.395,0,.682,0,3.337,0,9.113,0,9.113.571v2.6c0,.214-.215.249-.395.249h-.18L4.377,3.316c-.144,0-.251.464-.251,1.463,0,1.676-.108,4.422.107,6.454a5.278,5.278,0,0,0,1.041.072c.755,0,1.472-.107,2.369-.107.036.035.323.285.323.428v3.067c0,.072-.252.214-.323.25L4.019,14.8l-.108.642V20.65l.108.392H8.611c.323.071.358.392.358.678,0,.891.144,2.889-.682,2.889H4.629a6.625,6.625,0,0,1-1.686.142c-1.185,0-2.763.178-2.943-.392Z" transform="translate(157.759 50.829)"/><path class="c" d="M1.183,24.822a.591.591,0,0,1-.43-.19C0,23.865.03,20.891.06,18.266c.006-.519.012-1,.012-1.469,0-1.371-.018-3.291-.036-5.148S0,7.864,0,6.49C0,6.073.013,5.7.023,5.4c.007-.215.013-.4.013-.548,0-.277-.008-1.1-.017-1.962C.01,1.98,0,1.044,0,.713,0,.233.634,0,1.937,0a8.589,8.589,0,0,1,6.27,2.265,7.228,7.228,0,0,1,2.018,5.153,11.114,11.114,0,0,1-1.938,6.041,7.836,7.836,0,0,1-4.521,3.446l-.071.107a21.714,21.714,0,0,1,.143,2.461c0,.124,0,.3.005.5.019,1.391.06,4.285-.472,4.564l-2.009.251A.4.4,0,0,1,1.183,24.822ZM3.874,3.459a.2.2,0,0,0-.149.061c-.155.158-.148.59-.141,1.008,0,.089,0,.172,0,.251,0,1.348.027,2.712.054,4.031.027,1.345.055,2.736.055,4.136v.107c1.563-.481,2.654-3.412,2.654-5.741C6.349,5.052,5.447,3.647,3.874,3.459Z" transform="translate(170.568 50.829)"/><path class="c" d="M3.606,24.458a23.243,23.243,0,0,1-3.355-.278A.378.378,0,0,1,0,23.86v-.107c.041-1.3.1-5.2.179-10.13v-.013C.243,9.567.315,4.986.395.571c0-.438.766-.518,1.134-.556L1.652,0H2.835c3.2,0,5.24.918,6.408,2.889,1.183,2,1.361,4.935,1.377,7.811.022,6.237-.068,10.162-2.083,12.185C7.468,23.958,5.9,24.457,3.606,24.458ZM4.262,4.123c-.112,0-.229,0-.349.015l-.395,16.4c0,.072.073.072.143.072a2.354,2.354,0,0,0,.41.038,1.761,1.761,0,0,0,1.291-.545C6.654,18.8,6.77,15.456,6.746,13.053V11.412c0-.515.014-1.041.027-1.55.056-2.136.109-4.154-.84-5.128A2.207,2.207,0,0,0,4.262,4.123Z" transform="translate(188.795 50.758)"/><path class="c" d="M.252.571C.252.357.395,0,.682,0,3.337,0,9.113,0,9.113.571v2.6c0,.214-.215.249-.395.249H8.54L4.378,3.316c-.144,0-.252.464-.252,1.463,0,1.676-.108,4.422.108,6.454a5.263,5.263,0,0,0,1.04.072c.755,0,1.472-.107,2.369-.107.036.035.323.285.323.428v3.067c0,.072-.252.214-.323.25L4.019,14.8l-.108.642V20.65l.108.392H8.611c.323.071.359.392.359.678,0,.891.143,2.889-.682,2.889H4.63a6.633,6.633,0,0,1-1.687.142c-1.185,0-2.762.178-2.943-.392Z" transform="translate(203.147 50.829)"/><path class="c" d="M.072,7.739V3.745C0,2.889,0,1.783,0,.963V.178C.036.035.252,0,.324,0,.611,0,2.44.143,2.834.178c.143,0,.789.035.9.035.143.036.286.143.286.25L3.839,20.792c.43.428,3.8-.143,3.767.642v3l-.18.214L.072,24.43C-.071,18.9.072,13.3.072,7.739" transform="translate(215.957 50.793)"/><path class="c" d="M2.8,14.622c0-3.281.216-6.955.216-10.306,0-.642-.252-.642-.575-.642H2.333c-.468,0-.933.072-1.364.072C.287,3.745,0,3.709,0,3.067A25,25,0,0,1,.143.321C.143.035.789,0,2.619,0c2.8,0,7.068.143,7.211.143l.144.178c0,.036.108,1.534.108,2.069,0,1.426-.18,1.462-1.328,1.462-.717,0-1.434-.178-2.153-.178,0,1.32-.108,7.24-.108,8.56a58.86,58.86,0,0,1,.18,7.382c0,.606-.036,3.459-.036,4.1-.215.713-1.686.713-2.259.713H4.27c-.717,0-1.184,0-1.4-.713,0-1.391-.072-7.739-.072-9.094" transform="translate(224.496 50.829)"/><path class="c" d="M3.66,25.107A.814.814,0,0,1,3.265,25c-.216,0-.708-.018-1.184-.036S1.112,24.929.9,24.929l-.1,0-.152,0a1.246,1.246,0,0,1-.432-.06.305.305,0,0,1-.217-.3c0-.88.305-5.209,4.233-23.966C4.343.283,5.094,0,5.49,0H7.678C8.451,0,8.945.866,9.15,1.677l.009.032c.183.654.741,2.642,2.751,22.08v.748c0,.172-.722.215-.824.215a5.955,5.955,0,0,1-.644.107h-2.3l-.18-.143-.143-3.5c0-.228-.023-.251-.124-.251H7.39c-.21,0-.844.017-1.516.034-.693.018-1.4.037-1.641.037-.137,1.166-.284,2.533-.323,3.816l-.018.037C3.833,25.019,3.79,25.107,3.66,25.107ZM6.421,6.7h0L4.843,17.191H7.57L6.423,6.705Z" transform="translate(235.189 50.222)"/><path class="b" d="M0,2.218A2.126,2.126,0,0,0,2.16,4.31l3.79-.08a2.135,2.135,0,0,0,2.1-2.138A2.124,2.124,0,0,0,5.888,0L2.1.081A2.137,2.137,0,0,0,0,2.218" transform="translate(3.68 24.598)"/><path class="b" d="M.087,1.514A2.123,2.123,0,0,0,1.522,4.143L12.266,7.308a2.117,2.117,0,1,0,1.208-4.057L2.73.086A2.139,2.139,0,0,0,.087,1.514" transform="translate(0 13.159)"/><path class="b" d="M.322.994A2.119,2.119,0,0,0,.99,3.906l14.475,9.221a2.119,2.119,0,1,0,2.273-3.578L3.261.328A2.136,2.136,0,0,0,.322.994" transform="translate(0.911 0)"/></svg>