<?xml version="1.0" encoding="utf-8"?>
<!-- Generator: Adobe Illustrator 26.0.2, SVG Export Plug-In . SVG Version: 6.00 Build 0)  -->
<svg version="1.1" id="button" xmlns="http://www.w3.org/2000/svg" xmlns:xlink="http://www.w3.org/1999/xlink" x="0px" y="0px"
	 viewBox="0 0 256 41" style="enable-background:new 0 0 256 41;" xml:space="preserve">
<style type="text/css">
	.st0{fill:#FFBE4E;}
	.st1{fill:#6D2138;}
	.st2{enable-background:new    ;}
</style>
<g id="Rectangle">
	<path class="st0" d="M7,0h242c3.9,0,7,3.1,7,7v27c0,3.9-3.1,7-7,7H7c-3.9,0-7-3.1-7-7V7C0,3.1,3.1,0,7,0z"/>
</g>
<g id="Group" transform="translate(18 11)">
	<g id="Group_5" transform="translate(207 16) rotate(-90)">
		<g id="Fill_1">
			<path class="st1" d="M6.8,9.2c0.1,0,0.3-0.1,0.4-0.2l3.5-3.4c0.2-0.2,0.2-0.5,0-0.7c0,0,0,0,0,0c-0.2-0.2-0.5-0.2-0.7,0L6.8,8
				L3.7,4.9C3.5,4.7,3.2,4.7,3,4.9C2.8,5.1,2.8,5.5,3,5.7c0,0,0,0,0,0l3.5,3.4C6.6,9.2,6.7,9.2,6.8,9.2"/>
		</g>
		<g id="Stroke_3">
			<path class="st1" d="M-0.5,7c0-4.1,3.4-7.5,7.5-7.5s7.5,3.4,7.5,7.5s-3.4,7.5-7.5,7.5S-0.5,11.1-0.5,7z M13.5,7
				c0-3.6-2.9-6.5-6.5-6.5S0.5,3.4,0.5,7s2.9,6.5,6.5,6.5S13.5,10.6,13.5,7z"/>
		</g>
	</g>
	<g class="st2">
		<path class="st1" d="M4.1,14.6L0.6,4.3l0-0.2c0-0.1,0-0.2,0.1-0.2c0.1-0.1,0.1-0.1,0.2-0.1h0.8c0.2,0,0.3,0.1,0.4,0.3l3.1,9.1
			l3.1-9.1C8.4,4,8.4,4,8.5,3.9c0.1-0.1,0.2-0.1,0.3-0.1h0.8c0.1,0,0.2,0,0.2,0.1C9.9,4,10,4,10,4.1l0,0.2L6.3,14.6
			C6.2,14.9,6,15,5.8,15h-1C4.4,15,4.2,14.9,4.1,14.6z"/>
		<path class="st1" d="M11.6,5c-0.1-0.1-0.1-0.2-0.1-0.3V3.9c0-0.1,0-0.2,0.1-0.3c0.1-0.1,0.2-0.1,0.3-0.1h1c0.1,0,0.2,0,0.3,0.1
			c0.1,0.1,0.1,0.2,0.1,0.3v0.9c0,0.1,0,0.2-0.1,0.3c-0.1,0.1-0.2,0.1-0.3,0.1h-1C11.8,5.1,11.7,5.1,11.6,5z M11.8,14.9
			c-0.1-0.1-0.1-0.2-0.1-0.3V7c0-0.1,0-0.2,0.1-0.3c0.1-0.1,0.2-0.1,0.3-0.1h0.8c0.1,0,0.2,0,0.3,0.1s0.1,0.2,0.1,0.3v7.6
			c0,0.1,0,0.2-0.1,0.3S12.9,15,12.8,15H12C11.9,15,11.8,15,11.8,14.9z"/>
		<path class="st1" d="M16.5,14.8c-0.5-0.2-0.9-0.5-1.1-0.8c-0.3-0.3-0.4-0.6-0.4-0.8c0-0.1,0-0.2,0.1-0.2s0.2-0.1,0.2-0.1h0.7
			c0.1,0,0.2,0.1,0.3,0.2c0.3,0.3,0.5,0.5,0.8,0.7s0.7,0.3,1.2,0.3c0.6,0,1-0.1,1.4-0.3c0.3-0.2,0.5-0.5,0.5-0.9
			c0-0.3-0.1-0.5-0.2-0.6c-0.1-0.2-0.4-0.3-0.7-0.4c-0.3-0.1-0.9-0.3-1.5-0.4c-0.9-0.2-1.6-0.5-2-0.9c-0.4-0.4-0.6-0.9-0.6-1.5
			c0-0.4,0.1-0.8,0.4-1.2c0.2-0.4,0.6-0.7,1.1-0.9s1-0.3,1.7-0.3c0.7,0,1.3,0.1,1.7,0.3c0.5,0.2,0.8,0.5,1.1,0.8
			c0.2,0.3,0.4,0.6,0.4,0.8c0,0.1,0,0.2-0.1,0.2c-0.1,0.1-0.2,0.1-0.2,0.1h-0.7c-0.1,0-0.2-0.1-0.3-0.2c-0.2-0.2-0.3-0.4-0.4-0.5
			c-0.1-0.1-0.3-0.2-0.5-0.3c-0.2-0.1-0.5-0.1-0.9-0.1c-0.5,0-0.9,0.1-1.2,0.3c-0.3,0.2-0.4,0.5-0.4,0.9c0,0.2,0.1,0.4,0.2,0.6
			c0.1,0.2,0.3,0.3,0.7,0.4c0.3,0.1,0.8,0.3,1.5,0.4c1,0.2,1.7,0.5,2.2,0.9c0.4,0.4,0.6,0.9,0.6,1.5c0,0.5-0.1,0.9-0.4,1.2
			c-0.3,0.4-0.7,0.7-1.2,0.9c-0.5,0.2-1.1,0.3-1.8,0.3C17.7,15.2,17,15,16.5,14.8z"/>
		<path class="st1" d="M23.7,5c-0.1-0.1-0.1-0.2-0.1-0.3V3.9c0-0.1,0-0.2,0.1-0.3c0.1-0.1,0.2-0.1,0.3-0.1h1c0.1,0,0.2,0,0.3,0.1
			c0.1,0.1,0.1,0.2,0.1,0.3v0.9c0,0.1,0,0.2-0.1,0.3c-0.1,0.1-0.2,0.1-0.3,0.1h-1C23.8,5.1,23.7,5.1,23.7,5z M23.8,14.9
			c-0.1-0.1-0.1-0.2-0.1-0.3V7c0-0.1,0-0.2,0.1-0.3c0.1-0.1,0.2-0.1,0.3-0.1h0.8c0.1,0,0.2,0,0.3,0.1s0.1,0.2,0.1,0.3v7.6
			c0,0.1,0,0.2-0.1,0.3S24.9,15,24.8,15h-0.8C24,15,23.9,15,23.8,14.9z"/>
		<path class="st1" d="M28.3,12.2V8H27c-0.1,0-0.2,0-0.3-0.1c-0.1-0.1-0.1-0.2-0.1-0.3V7c0-0.1,0-0.2,0.1-0.3
			c0.1-0.1,0.2-0.1,0.3-0.1h1.2V4c0-0.1,0-0.2,0.1-0.3s0.2-0.1,0.3-0.1h0.8c0.1,0,0.2,0,0.3,0.1c0.1,0.1,0.1,0.2,0.1,0.3v2.7h2
			c0.1,0,0.2,0,0.3,0.1c0.1,0.1,0.1,0.2,0.1,0.3v0.5c0,0.1,0,0.2-0.1,0.3C32,7.9,31.9,8,31.8,8h-2v4.1c0,0.5,0.1,0.9,0.3,1.2
			c0.2,0.3,0.5,0.4,0.9,0.4h1c0.1,0,0.2,0,0.3,0.1s0.1,0.2,0.1,0.3v0.6c0,0.1,0,0.2-0.1,0.3S32,15,31.9,15h-1.1
			C29.1,15,28.3,14.1,28.3,12.2z"/>
	</g>
	<g class="st2">
		<path class="st1" d="M39.3,14.9c-0.1-0.1-0.2-0.2-0.2-0.4L37.2,4.3l0-0.1c0-0.1,0-0.2,0.1-0.2c0.1-0.1,0.1-0.1,0.2-0.1h1.4
			c0.3,0,0.4,0.1,0.4,0.3l1.3,7.2l1.4-4.7c0.1-0.3,0.3-0.4,0.5-0.4h0.9c0.3,0,0.4,0.1,0.5,0.4l1.5,4.7l1.3-7.2
			c0-0.1,0.1-0.2,0.1-0.2s0.2-0.1,0.3-0.1h1.4c0.1,0,0.2,0,0.2,0.1C49,4,49,4,49,4.1c0,0.1,0,0.1,0,0.1l-1.9,10.3
			C47,14.8,46.8,15,46.5,15h-1.1c-0.1,0-0.3,0-0.4-0.1c-0.1-0.1-0.2-0.2-0.2-0.3l-1.8-5.3l-1.8,5.3C41.2,14.9,41,15,40.7,15h-1.1
			C39.5,15,39.4,15,39.3,14.9z"/>
		<path class="st1" d="M50.8,14.9c-0.1-0.1-0.1-0.2-0.1-0.3V4c0-0.1,0-0.2,0.1-0.3s0.2-0.1,0.3-0.1h1.4c0.1,0,0.2,0,0.3,0.1
			c0.1,0.1,0.1,0.2,0.1,0.3v3.6c0.6-0.8,1.5-1.2,2.6-1.2c1,0,1.8,0.3,2.4,1c0.6,0.6,0.9,1.5,0.9,2.6v4.5c0,0.1,0,0.2-0.1,0.3
			C58.5,15,58.4,15,58.3,15h-1.4c-0.1,0-0.2,0-0.3-0.1c-0.1-0.1-0.1-0.2-0.1-0.3v-4.4c0-0.6-0.2-1.1-0.5-1.5s-0.7-0.5-1.3-0.5
			c-0.6,0-1,0.2-1.3,0.5c-0.3,0.4-0.5,0.8-0.5,1.5v4.4c0,0.1,0,0.2-0.1,0.3C52.7,15,52.6,15,52.5,15h-1.4C51,15,50.9,15,50.8,14.9z"
			/>
		<path class="st1" d="M61.7,14.8c-0.5-0.2-0.8-0.5-1.1-0.9c-0.3-0.4-0.4-0.8-0.4-1.2c0-0.7,0.3-1.3,0.9-1.8s1.4-0.8,2.4-0.9
			l2.2-0.3V9.4c0-0.5-0.1-0.8-0.4-1.1S64.7,8,64.2,8c-0.4,0-0.6,0.1-0.9,0.2c-0.2,0.1-0.4,0.3-0.5,0.4c-0.1,0.1-0.2,0.2-0.3,0.3
			C62.5,9,62.4,9,62.3,9h-1.2c-0.1,0-0.2,0-0.2-0.1c-0.1-0.1-0.1-0.1-0.1-0.3c0-0.3,0.1-0.6,0.4-0.9c0.2-0.3,0.6-0.6,1.2-0.9
			c0.5-0.2,1.2-0.4,1.9-0.4c1.3,0,2.2,0.3,2.8,0.8c0.6,0.6,0.9,1.3,0.9,2.2v5c0,0.1,0,0.2-0.1,0.3C67.7,15,67.6,15,67.4,15h-1.3
			c-0.1,0-0.2,0-0.3-0.1c-0.1-0.1-0.1-0.2-0.1-0.3V14c-0.2,0.3-0.6,0.6-1,0.8c-0.4,0.2-1,0.3-1.6,0.3C62.6,15.2,62.1,15.1,61.7,14.8
			z M65.1,13.1c0.4-0.4,0.6-0.9,0.6-1.7V11l-1.6,0.3c-0.6,0.1-1.1,0.3-1.4,0.5c-0.3,0.2-0.5,0.5-0.5,0.8c0,0.3,0.1,0.6,0.4,0.8
			c0.3,0.2,0.6,0.3,1,0.3C64.3,13.6,64.8,13.4,65.1,13.1z"/>
		<path class="st1" d="M71.4,14.2c-0.5-0.5-0.7-1.3-0.7-2.2V8.4h-1.3c-0.1,0-0.2,0-0.3-0.1C69,8.2,69,8.1,69,8V7.1
			c0-0.1,0-0.2,0.1-0.3c0.1-0.1,0.2-0.1,0.3-0.1h1.3V4c0-0.1,0-0.2,0.1-0.3s0.2-0.1,0.3-0.1h1.3c0.1,0,0.2,0,0.3,0.1
			s0.1,0.2,0.1,0.3v2.7h2c0.1,0,0.2,0,0.3,0.1s0.1,0.2,0.1,0.3V8c0,0.1,0,0.2-0.1,0.3c-0.1,0.1-0.2,0.1-0.3,0.1h-2v3.5
			c0,0.5,0.1,0.8,0.2,1c0.2,0.2,0.4,0.4,0.8,0.4h1.1c0.1,0,0.2,0,0.3,0.1c0.1,0.1,0.1,0.2,0.1,0.3v1c0,0.1,0,0.2-0.1,0.3
			C75.1,15,75,15,74.8,15h-1.3C72.6,15,71.9,14.7,71.4,14.2z"/>
		<path class="st1" d="M77,14.9c-0.1-0.1-0.1-0.2-0.1-0.3V4.2c0-0.1,0-0.2,0.1-0.3c0.1-0.1,0.2-0.1,0.3-0.1h1.5c0.1,0,0.2,0,0.3,0.1
			s0.1,0.2,0.1,0.3v10.4c0,0.1,0,0.2-0.1,0.3C78.9,15,78.9,15,78.7,15h-1.5C77.1,15,77,15,77,14.9z"/>
		<path class="st1" d="M82.6,14.8c-0.5-0.2-0.9-0.5-1.2-0.8c-0.3-0.3-0.4-0.6-0.4-0.8c0-0.1,0-0.2,0.1-0.3c0.1-0.1,0.2-0.1,0.3-0.1
			h1.3c0.1,0,0.2,0,0.2,0.1c0,0,0.2,0.1,0.3,0.3c0.2,0.2,0.4,0.3,0.6,0.4c0.2,0.1,0.5,0.1,0.8,0.1c0.4,0,0.8-0.1,1.1-0.3
			s0.4-0.4,0.4-0.7c0-0.2-0.1-0.4-0.2-0.5c-0.1-0.1-0.3-0.3-0.7-0.4c-0.3-0.1-0.8-0.2-1.4-0.4c-0.9-0.2-1.6-0.5-2-0.9
			S81.2,9.7,81.2,9c0-0.4,0.1-0.8,0.4-1.2c0.3-0.4,0.6-0.7,1.1-0.9s1.1-0.4,1.8-0.4c0.7,0,1.3,0.1,1.9,0.3s0.9,0.5,1.2,0.8
			C87.8,8,88,8.3,88,8.5c0,0.1,0,0.2-0.1,0.2c-0.1,0.1-0.2,0.1-0.2,0.1h-1.2c-0.1,0-0.2,0-0.3-0.1c-0.1-0.1-0.2-0.2-0.4-0.3
			s-0.3-0.3-0.6-0.4C85,8,84.8,8,84.5,8c-0.4,0-0.7,0.1-0.9,0.3c-0.2,0.2-0.3,0.4-0.3,0.7c0,0.2,0.1,0.4,0.2,0.5s0.3,0.2,0.6,0.4
			c0.3,0.1,0.8,0.2,1.4,0.4c1,0.2,1.8,0.5,2.2,0.9c0.4,0.4,0.7,0.9,0.7,1.6c0,0.7-0.3,1.4-1,1.8s-1.6,0.7-2.7,0.7
			C83.8,15.2,83.1,15,82.6,14.8z"/>
		<path class="st1" d="M90.3,14.9c-0.1-0.1-0.1-0.2-0.1-0.3V4.2c0-0.1,0-0.2,0.1-0.3s0.2-0.1,0.3-0.1H92c0.1,0,0.2,0,0.3,0.1
			c0.1,0.1,0.1,0.2,0.1,0.3v4.1h4.7V4.2c0-0.1,0-0.2,0.1-0.3s0.2-0.1,0.3-0.1h1.4c0.1,0,0.2,0,0.3,0.1s0.1,0.2,0.1,0.3v10.4
			c0,0.1,0,0.2-0.1,0.3S99,15,98.9,15h-1.4c-0.1,0-0.2,0-0.3-0.1c-0.1-0.1-0.1-0.2-0.1-0.3v-4.3h-4.7v4.3c0,0.1,0,0.2-0.1,0.3
			C92.2,15,92.1,15,92,15h-1.5C90.4,15,90.3,15,90.3,14.9z"/>
		<path class="st1" d="M102.4,14.1c-0.7-0.7-1.1-1.7-1.1-2.9l0-0.4l0-0.4c0.1-1.2,0.4-2.2,1.1-2.9c0.7-0.7,1.6-1,2.8-1
			c1.3,0,2.2,0.4,2.9,1.2c0.7,0.8,1,1.8,1,3.1v0.3c0,0.1,0,0.2-0.1,0.3c-0.1,0.1-0.2,0.1-0.3,0.1h-5.3v0.1c0,0.6,0.2,1.1,0.5,1.5
			c0.3,0.4,0.7,0.6,1.3,0.6c0.6,0,1.1-0.2,1.5-0.7c0.1-0.1,0.2-0.2,0.2-0.2s0.1,0,0.3,0h1.4c0.1,0,0.2,0,0.2,0.1
			c0.1,0.1,0.1,0.1,0.1,0.2c0,0.3-0.2,0.6-0.5,0.9s-0.7,0.6-1.3,0.9c-0.6,0.3-1.2,0.4-2,0.4C104,15.2,103.1,14.8,102.4,14.1z
			 M107,10.1L107,10.1c0-0.7-0.2-1.2-0.5-1.6S105.8,8,105.2,8c-0.6,0-1,0.2-1.3,0.6c-0.3,0.4-0.5,0.9-0.5,1.5v0H107z"/>
		<path class="st1" d="M111,17.9c-0.1-0.1-0.1-0.2-0.1-0.3V7.1c0-0.1,0-0.2,0.1-0.3s0.2-0.1,0.3-0.1h1.3c0.1,0,0.2,0,0.3,0.1
			s0.1,0.2,0.1,0.3v0.6c0.6-0.8,1.5-1.2,2.6-1.2c1.1,0,1.9,0.3,2.5,1s0.9,1.6,0.9,2.7c0,0.1,0,0.3,0,0.6c0,0.3,0,0.4,0,0.6
			c0,1.1-0.4,2-0.9,2.7c-0.6,0.7-1.4,1-2.5,1c-1.1,0-1.9-0.4-2.5-1.1v3.6c0,0.1,0,0.2-0.1,0.3s-0.2,0.1-0.3,0.1h-1.4
			C111.1,18,111,18,111,17.9z M116.7,11.3c0-0.1,0-0.3,0-0.5c0-0.2,0-0.4,0-0.5c-0.1-1.4-0.7-2.1-1.8-2.1c-0.6,0-1.1,0.2-1.4,0.6
			c-0.3,0.4-0.5,0.9-0.5,1.5l0,0.6l0,0.6c0,0.5,0.2,1,0.5,1.4c0.3,0.4,0.8,0.6,1.4,0.6C116,13.4,116.6,12.7,116.7,11.3z"/>
		<path class="st1" d="M121,14.9c-0.1-0.1-0.1-0.2-0.1-0.3V4.2c0-0.1,0-0.2,0.1-0.3s0.2-0.1,0.3-0.1h3.9c3.1,0,4.7,1.5,4.8,4.4
			c0,0.6,0,1,0,1.2c0,0.2,0,0.6,0,1.2c0,1.5-0.4,2.6-1.2,3.3c-0.8,0.7-1.9,1.1-3.5,1.1h-4C121.1,15,121,15,121,14.9z M125.2,13.2
			c0.9,0,1.5-0.2,1.9-0.6c0.4-0.4,0.6-1.1,0.6-2c0-0.6,0-1,0-1.2c0-0.2,0-0.6,0-1.2c0-0.9-0.2-1.5-0.7-1.9s-1.1-0.6-2-0.6h-2v7.5
			H125.2z"/>
		<path class="st1" d="M132.7,14.1c-0.7-0.7-1.1-1.7-1.1-2.9l0-0.4l0-0.4c0.1-1.2,0.4-2.2,1.1-2.9c0.7-0.7,1.6-1,2.8-1
			c1.3,0,2.2,0.4,2.9,1.2c0.7,0.8,1,1.8,1,3.1v0.3c0,0.1,0,0.2-0.1,0.3c-0.1,0.1-0.2,0.1-0.3,0.1h-5.3v0.1c0,0.6,0.2,1.1,0.5,1.5
			c0.3,0.4,0.7,0.6,1.3,0.6c0.6,0,1.1-0.2,1.5-0.7c0.1-0.1,0.2-0.2,0.2-0.2s0.1,0,0.3,0h1.4c0.1,0,0.2,0,0.2,0.1
			c0.1,0.1,0.1,0.1,0.1,0.2c0,0.3-0.2,0.6-0.5,0.9s-0.7,0.6-1.3,0.9c-0.6,0.3-1.2,0.4-2,0.4C134.3,15.2,133.4,14.8,132.7,14.1z
			 M137.3,10.1L137.3,10.1c0-0.7-0.2-1.2-0.5-1.6S136.1,8,135.5,8c-0.6,0-1,0.2-1.3,0.6c-0.3,0.4-0.5,0.9-0.5,1.5v0H137.3z"/>
		<path class="st1" d="M141.3,14.9c-0.1-0.1-0.1-0.2-0.1-0.3V4c0-0.1,0-0.2,0.1-0.3s0.2-0.1,0.3-0.1h1.3c0.1,0,0.2,0,0.3,0.1
			s0.1,0.2,0.1,0.3v10.6c0,0.1,0,0.2-0.1,0.3c-0.1,0.1-0.2,0.1-0.3,0.1h-1.3C141.4,15,141.4,15,141.3,14.9z"/>
		<path class="st1" d="M147,14.2c-0.5-0.5-0.7-1.3-0.7-2.2V8.4H145c-0.1,0-0.2,0-0.3-0.1c-0.1-0.1-0.1-0.2-0.1-0.3V7.1
			c0-0.1,0-0.2,0.1-0.3c0.1-0.1,0.2-0.1,0.3-0.1h1.3V4c0-0.1,0-0.2,0.1-0.3s0.2-0.1,0.3-0.1h1.3c0.1,0,0.2,0,0.3,0.1
			s0.1,0.2,0.1,0.3v2.7h2c0.1,0,0.2,0,0.3,0.1s0.1,0.2,0.1,0.3V8c0,0.1,0,0.2-0.1,0.3c-0.1,0.1-0.2,0.1-0.3,0.1h-2v3.5
			c0,0.5,0.1,0.8,0.2,1c0.2,0.2,0.4,0.4,0.8,0.4h1.1c0.1,0,0.2,0,0.3,0.1c0.1,0.1,0.1,0.2,0.1,0.3v1c0,0.1,0,0.2-0.1,0.3
			c-0.1,0.1-0.2,0.1-0.3,0.1h-1.3C148.2,15,147.5,14.7,147,14.2z"/>
		<path class="st1" d="M153.2,14.8c-0.5-0.2-0.8-0.5-1.1-0.9c-0.3-0.4-0.4-0.8-0.4-1.2c0-0.7,0.3-1.3,0.9-1.8s1.4-0.8,2.4-0.9
			l2.2-0.3V9.4c0-0.5-0.1-0.8-0.4-1.1S156.2,8,155.7,8c-0.4,0-0.6,0.1-0.9,0.2c-0.2,0.1-0.4,0.3-0.5,0.4c-0.1,0.1-0.2,0.2-0.3,0.3
			C154,9,154,9,153.8,9h-1.2c-0.1,0-0.2,0-0.2-0.1c-0.1-0.1-0.1-0.1-0.1-0.3c0-0.3,0.1-0.6,0.4-0.9c0.2-0.3,0.6-0.6,1.2-0.9
			c0.5-0.2,1.2-0.4,1.9-0.4c1.3,0,2.2,0.3,2.8,0.8c0.6,0.6,0.9,1.3,0.9,2.2v5c0,0.1,0,0.2-0.1,0.3c-0.1,0.1-0.2,0.1-0.3,0.1h-1.3
			c-0.1,0-0.2,0-0.3-0.1c-0.1-0.1-0.1-0.2-0.1-0.3V14c-0.2,0.3-0.6,0.6-1,0.8c-0.4,0.2-1,0.3-1.6,0.3
			C154.1,15.2,153.6,15.1,153.2,14.8z M156.7,13.1c0.4-0.4,0.6-0.9,0.6-1.7V11l-1.6,0.3c-0.6,0.1-1.1,0.3-1.4,0.5
			c-0.3,0.2-0.5,0.5-0.5,0.8c0,0.3,0.1,0.6,0.4,0.8c0.3,0.2,0.6,0.3,1,0.3C155.8,13.6,156.3,13.4,156.7,13.1z"/>
		<path class="st1" d="M161.4,14.9c-0.1-0.1-0.1-0.2-0.1-0.3V13c0-0.1,0-0.2,0.1-0.3c0.1-0.1,0.2-0.1,0.3-0.1h1.6
			c0.1,0,0.2,0,0.3,0.1c0.1,0.1,0.1,0.2,0.1,0.3v1.6c0,0.1,0,0.2-0.1,0.3c-0.1,0.1-0.2,0.1-0.3,0.1h-1.6
			C161.6,15,161.5,15,161.4,14.9z"/>
		<path class="st1" d="M166.4,14.2c-0.7-0.7-1.1-1.6-1.1-2.7l0-0.6l0-0.6c0-1.2,0.4-2.1,1.1-2.7s1.6-1,2.8-1c0.8,0,1.5,0.2,2.1,0.4
			c0.6,0.3,1,0.7,1.3,1.1c0.3,0.4,0.4,0.8,0.5,1.2c0,0.1,0,0.2-0.1,0.3c-0.1,0.1-0.2,0.1-0.3,0.1h-1.4c-0.1,0-0.2,0-0.2-0.1
			c-0.1,0-0.1-0.1-0.2-0.2c-0.2-0.4-0.4-0.7-0.6-0.9s-0.6-0.3-1-0.3c-0.5,0-1,0.2-1.3,0.5c-0.3,0.3-0.5,0.9-0.5,1.6l0,0.6l0,0.5
			c0,1.4,0.6,2.1,1.8,2.1c0.4,0,0.8-0.1,1-0.3c0.3-0.2,0.5-0.5,0.6-0.9c0.1-0.1,0.1-0.2,0.2-0.2s0.1-0.1,0.2-0.1h1.4
			c0.1,0,0.2,0,0.3,0.1s0.1,0.2,0.1,0.3c0,0.4-0.2,0.8-0.4,1.2s-0.7,0.8-1.3,1.1c-0.6,0.3-1.3,0.5-2.1,0.5
			C168,15.2,167.1,14.8,166.4,14.2z"/>
		<path class="st1" d="M175.5,14.2c-0.7-0.6-1.1-1.5-1.1-2.6l0-0.7l0-0.7c0.1-1.1,0.4-2,1.1-2.6s1.7-1,2.9-1s2.2,0.3,2.9,1
			c0.7,0.7,1.1,1.5,1.1,2.6c0,0.1,0,0.4,0,0.7c0,0.3,0,0.6,0,0.7c-0.1,1.1-0.4,2-1.1,2.6s-1.6,1-2.9,1S176.2,14.8,175.5,14.2z
			 M179.7,13c0.3-0.4,0.5-0.9,0.5-1.6c0-0.1,0-0.3,0-0.6s0-0.5,0-0.6c0-0.7-0.2-1.2-0.5-1.6c-0.3-0.4-0.7-0.5-1.3-0.5
			s-1,0.2-1.3,0.5c-0.3,0.4-0.5,0.9-0.5,1.6l0,0.6l0,0.6c0,0.7,0.2,1.2,0.5,1.6s0.7,0.5,1.3,0.5S179.4,13.4,179.7,13z"/>
		<path class="st1" d="M184.3,14.9c-0.1-0.1-0.1-0.2-0.1-0.3V7.1c0-0.1,0-0.2,0.1-0.3c0.1-0.1,0.2-0.1,0.3-0.1h1.2
			c0.1,0,0.2,0,0.3,0.1c0.1,0.1,0.1,0.2,0.1,0.3v0.5c0.6-0.7,1.3-1.1,2.3-1.1c1.2,0,2,0.5,2.5,1.4c0.3-0.4,0.6-0.8,1.1-1
			c0.5-0.3,1-0.4,1.5-0.4c0.9,0,1.6,0.3,2.1,0.9s0.8,1.5,0.8,2.6v4.6c0,0.1,0,0.2-0.1,0.3c-0.1,0.1-0.2,0.1-0.3,0.1h-1.3
			c-0.1,0-0.2,0-0.3-0.1c-0.1-0.1-0.1-0.2-0.1-0.3v-4.5c0-0.7-0.1-1.2-0.4-1.5c-0.3-0.3-0.7-0.5-1.1-0.5c-0.4,0-0.8,0.2-1.1,0.5
			c-0.3,0.3-0.4,0.8-0.4,1.5v4.5c0,0.1,0,0.2-0.1,0.3c-0.1,0.1-0.2,0.1-0.3,0.1h-1.3c-0.1,0-0.2,0-0.3-0.1c-0.1-0.1-0.1-0.2-0.1-0.3
			v-4.5c0-0.7-0.1-1.2-0.4-1.5c-0.3-0.3-0.7-0.5-1.1-0.5c-0.4,0-0.8,0.2-1.1,0.5c-0.3,0.3-0.4,0.8-0.4,1.5v4.5c0,0.1,0,0.2-0.1,0.3
			c-0.1,0.1-0.2,0.1-0.3,0.1h-1.3C184.5,15,184.4,15,184.3,14.9z"/>
	</g>
</g>
</svg>
