<?xml version="1.0" encoding="utf-8"?>
<!-- Generator: Adobe Illustrator 26.0.2, SVG Export Plug-In . SVG Version: 6.00 Build 0)  -->
<svg version="1.1" id="Layer_1" xmlns="http://www.w3.org/2000/svg" xmlns:xlink="http://www.w3.org/1999/xlink" x="0px" y="0px"
	 viewBox="0 0 55 38" style="enable-background:new 0 0 55 38;" xml:space="preserve">
<style type="text/css">
	.st0{enable-background:new    ;}
	.st1{fill:#FFFFFF;}
</style>
<g class="st0">
	<path class="st1" d="M0.8,10.5c0-0.4,0-0.8,0-1.2C1.1,9,4,9.1,3.9,9.6c0,3.9-0.1,6.5-0.1,10.3c0,0,0.1,0.1,0.1,0.1h2.9L6.9,20
		L7.3,9.7c0-0.4,0.5-0.4,0.8-0.4c0.6,0,2,0,2,0.6c0-0.2-0.1,12-0.1,19.1c0,0.2-0.1,0.7-0.5,0.7H7.2c-0.3,0-0.4-0.2-0.5-0.5
		c0-2.1,0.1-4,0.1-6.1l-2.9-0.1c-0.1,0-0.1,0.1-0.1,0.1v6.1c0,0.4-0.7,0.5-1.4,0.5c-1.3,0-1.7-0.1-1.7-0.4l-0.1-2.8
		c0-0.3,0-3.3,0-4.3C0.6,17.1,0.7,14.3,0.8,10.5z"/>
	<path class="st1" d="M11.6,28.5c-0.1-1.7-0.2-3.6-0.2-19.2c0.1-0.1,0.1-0.1,0.3-0.1c0.4,0,5.3,0.1,6.2,0c0.1,0,0.5,0.1,0.5,0.1
		c0.1,0,0.6,0.1,0.6,0.3v2.5c0,0.4-0.4,0.4-0.7,0.4H18l-3.4,0v5.7c0.4-0.2,0.8-0.1,1.2-0.1h1c0.3,0.1,0.7,0.2,0.7,0.6v2.2
		c0,0.2-0.3,0.4-0.5,0.4s-0.8,0-0.9,0c-0.6,0-1,0.1-1.5,0.1c0,0.2-0.1,1-0.1,1.2c0,0.5,0.3,3.4,0.4,3.9h0.2c1.1,0,2.1-0.2,3.1-0.2
		h0.6c0.2,0,0.4,0.2,0.4,0.3v2c0,0.4-0.5,0.7-0.8,0.8c-1.6,0.1-3.2,0.3-4.9,0.3c-0.6,0-0.9,0-1.6-0.1C11.7,29.5,11.6,28.9,11.6,28.5
		z"/>
	<path class="st1" d="M20.6,28.4c0-2.7,0-5.4,0.1-19.2c1.1,0,2.1-0.1,2.9-0.1c3.7,0,4.6,0.5,5.4,2.9l0.2,1.9c0,2.8-0.1,4.2-0.6,6.2
		c-0.4,1.8-2.5,2.7-4.3,2.7h-0.3c0,0.5,0.1,2.9,0.1,4.8c0,0.8,0.1,2.2-0.3,2.2L23,29.9h-1.9c-0.2,0-0.4-0.4-0.5-0.5
		C20.6,29.2,20.6,28.6,20.6,28.4z M23.9,20.1c2.1,0,2.1-2.8,2.1-4.8v-0.5c0-1.3-0.3-2.8-1.8-2.8c-0.3,0-0.3,3.7-0.3,4.7
		C23.8,17.2,23.9,18.9,23.9,20.1z"/>
	<path class="st1" d="M37.1,19.7v-3.6c0-2,0.1-4.3-0.1-6.7c0-0.3,0.3-0.5,0.6-0.5c0.2-0.1,1.1-0.2,1.3-0.3h1.3
		c4.7,0,6.8,1.3,6.4,5.9c-0.2,2.6-1.8,4.2-3.8,5.3v0.1c1.4,0.2,3.1,1.4,3.1,3.6c0.1,5.7-3.6,6.5-8.2,6.5c-0.3,0-0.4-0.4-0.4-0.6
		C37.2,28,37.1,21.2,37.1,19.7z M40.4,11.3L40.4,11.3c-0.1,0.1-0.3,4-0.4,5.6c0,0.2,0,1.2,0,1.4h0.1c2.4,0,3.3-2.5,3.1-4.4v-0.8
		c-0.3-1.2-1.4-1.9-2.6-1.9C40.5,11.2,40.4,11.2,40.4,11.3z M40.2,27.4L40.2,27.4c2.4-0.1,2.6-1.9,2.5-3.4c-0.1-3-1.7-3-2.7-3
		C40,22.6,40.1,25.7,40.2,27.4z"/>
</g>
</svg>
