<?xml version="1.0" encoding="utf-8"?>
<!-- Generator: Adobe Illustrator 26.0.2, SVG Export Plug-In . SVG Version: 6.00 Build 0)  -->
<svg version="1.1" id="Layer_1" xmlns="http://www.w3.org/2000/svg" xmlns:xlink="http://www.w3.org/1999/xlink" x="0px" y="0px"
	 viewBox="0 0 84 38" style="enable-background:new 0 0 84 38;" xml:space="preserve">
<style type="text/css">
	.st0{enable-background:new    ;}
	.st1{fill:#FFFFFF;}
</style>
<g class="st0">
	<path class="st1" d="M0.8,10.5c0-0.4,0-0.8,0-1.2C1.1,9,4,9.1,3.9,9.6c0,3.9-0.1,6.5-0.1,10.3c0,0,0.1,0.1,0.1,0.1h2.9L6.9,20
		L7.3,9.7c0-0.4,0.5-0.4,0.8-0.4c0.6,0,2,0,2,0.6c0-0.2-0.1,12-0.1,19.1c0,0.2-0.1,0.7-0.5,0.7H7.2c-0.3,0-0.4-0.2-0.5-0.5
		c0-2.1,0.1-4,0.1-6.1l-2.9-0.1c-0.1,0-0.1,0.1-0.1,0.1v6.1c0,0.4-0.7,0.5-1.4,0.5c-1.3,0-1.7-0.1-1.7-0.4l-0.1-2.8
		c0-0.3,0-3.3,0-4.3C0.6,17.1,0.7,14.3,0.8,10.5z"/>
	<path class="st1" d="M11.6,28.5c-0.1-1.7-0.2-3.6-0.2-19.2c0.1-0.1,0.1-0.1,0.3-0.1c0.4,0,5.3,0.1,6.2,0c0.1,0,0.5,0.1,0.5,0.1
		c0.1,0,0.6,0.1,0.6,0.3v2.5c0,0.4-0.4,0.4-0.7,0.4H18l-3.4,0v5.7c0.4-0.2,0.8-0.1,1.2-0.1h1c0.3,0.1,0.7,0.2,0.7,0.6v2.2
		c0,0.2-0.3,0.4-0.5,0.4s-0.8,0-0.9,0c-0.6,0-1,0.1-1.5,0.1c0,0.2-0.1,1-0.1,1.2c0,0.5,0.3,3.4,0.4,3.9h0.2c1.1,0,2.1-0.2,3.1-0.2
		h0.6c0.2,0,0.4,0.2,0.4,0.3v2c0,0.4-0.5,0.7-0.8,0.8c-1.6,0.1-3.2,0.3-4.9,0.3c-0.6,0-0.9,0-1.6-0.1C11.7,29.5,11.6,28.9,11.6,28.5
		z"/>
	<path class="st1" d="M20.6,28.4c0-2.7,0-5.4,0.1-19.2c1.1,0,2.1-0.1,2.9-0.1c3.7,0,4.6,0.5,5.4,2.9l0.1,1.9c0,2.8-0.1,4.2-0.6,6.2
		c-0.4,1.8-2.5,2.7-4.3,2.7h-0.3c0,0.5,0.1,2.9,0.1,4.8c0,0.8,0.1,2.2-0.3,2.2L23,29.9h-1.9c-0.2,0-0.4-0.4-0.5-0.5
		C20.6,29.2,20.6,28.6,20.6,28.4z M23.9,20.1c2.1,0,2.1-2.8,2.1-4.8v-0.5c0-1.3-0.3-2.8-1.8-2.8c-0.3,0-0.3,3.7-0.3,4.7
		C23.8,17.2,23.9,18.9,23.9,20.1z"/>
	<path class="st1" d="M37.3,11.4V9.5c0.1-0.5,1.3-0.4,2.3-0.4c2.5,0,6.1,0.7,7.1,6.4C47,19,46.4,28,39.9,29.7
		c-0.4,0.1-2,0.1-2.4,0.1c-0.6-0.4-0.4-3.7-0.4-5.5C37.1,20,37.3,15.7,37.3,11.4z M40.3,26.4L40.3,26.4c0.1,0,0.5-0.4,0.6-0.6
		c2-2.3,2.5-5.2,2.5-8.2c0-2.1-0.9-5.4-2.7-5.4c-0.1,0-0.3,0-0.3,0l-0.1,0.4c0,0.4-0.1,5.8-0.1,6.4C40.2,18.9,40.2,23.9,40.3,26.4z"
		/>
	<path class="st1" d="M48.1,9.8c0-0.2,0.1-0.5,0.4-0.5c2.2,0,7,0,7,0.5V12c0,0.2-0.2,0.2-0.3,0.2H55l-3.5-0.1
		c-0.1,0-0.2,0.4-0.2,1.2c0,1.4-0.1,3.7,0.1,5.4c0.3,0.1,0.6,0.1,0.9,0.1c0.6,0,1.2-0.1,2-0.1c0,0,0.3,0.2,0.3,0.4v2.6
		c0,0.1-0.2,0.2-0.3,0.2l-3-0.1l-0.1,0.5v4.4l0.1,0.3h3.8c0.3,0.1,0.3,0.3,0.3,0.6c0,0.8,0.1,2.4-0.6,2.4h-3.1
		c-0.4,0.1-0.9,0.1-1.4,0.1c-1,0-2.3,0.1-2.5-0.3L48.1,9.8z"/>
	<path class="st1" d="M56.8,15.8v-3.4c-0.1-0.7-0.1-1.7-0.1-2.3V9.4c0-0.1,0.2-0.2,0.3-0.2c0.2,0,1.8,0.1,2.1,0.2c0.1,0,0.7,0,0.8,0
		c0.1,0,0.2,0.1,0.2,0.2l-0.2,17.1c0.4,0.4,3.2-0.1,3.2,0.5v2.5L62.9,30l-6.1-0.2C56.6,25.2,56.8,20.5,56.8,15.8z"/>
	<path class="st1" d="M64.3,21.6c0-2.8,0.2-5.8,0.2-8.7c0-0.5-0.2-0.5-0.5-0.5h-0.1c-0.4,0-0.8,0.1-1.1,0.1c-0.6,0-0.8,0-0.8-0.6
		c0-0.7,0-1.5,0.1-2.3c0-0.2,0.5-0.3,2.1-0.3c2.3,0,5.9,0.1,6,0.1l0.1,0.2c0,0,0.1,1.3,0.1,1.7c0,1.2-0.2,1.2-1.1,1.2
		c-0.6,0-1.2-0.2-1.8-0.2c0,1.1-0.1,6.1-0.1,7.2c0.2,1.9,0.1,2.7,0.1,6.2c0,0.5,0,2.9,0,3.5c-0.2,0.6-1.4,0.6-1.9,0.6h-0.1
		c-0.6,0-1,0-1.2-0.6C64.3,28.1,64.3,22.7,64.3,21.6z"/>
	<path class="st1" d="M69.7,29.8c-0.2,0-0.8,0.1-0.8-0.3c0-0.4,0-3.3,3.5-20.2c0.1-0.3,0.7-0.5,1-0.5h1.8c0.7,0,1.1,0.8,1.2,1.4
		c0.1,0.5,0.6,2,2.3,18.6v0.6c0,0.2-0.6,0.2-0.7,0.2c-0.1,0-0.5,0.1-0.5,0.1h-1.9l-0.2-0.1l-0.1-2.9c0-0.2,0-0.2-0.2-0.2h-0.2
		c-0.4,0-2.2,0.1-2.6,0.1c-0.1,1-0.2,2.2-0.3,3.2c-0.1,0.1-0.1,0.2-0.2,0.2c-0.1,0-0.2,0-0.3-0.1C71.4,29.8,70.1,29.8,69.7,29.8z
		 M75.3,23.2l-1-8.8L73,23.2H75.3z"/>
</g>
</svg>
