<svg xmlns="http://www.w3.org/2000/svg" xmlns:xlink="http://www.w3.org/1999/xlink" width="147" height="65" viewBox="0 0 147 65"><defs><style>.a{fill:none;}.b{fill:#c0222c;}.c{fill:#fff;}.d{clip-path:url(#a);}.e{fill:#421b59;}</style><clipPath id="a"><path class="a" d="M0,0H69.892V43.3H0Z"/></clipPath></defs><path class="b" d="M8.152,0H55.747A8.152,8.152,0,0,1,63.9,8.1V43.3L52.376,33.911c-4.34-3.534-5.844-3.748-9.232-4.021H8.152A8.151,8.151,0,0,1,0,21.788V8.1A8.151,8.151,0,0,1,8.152,0" transform="translate(13.108 6.332)"/><path class="c" d="M4.409,13.249c0,.349,0,.922-.37.922L2.2,14.233c-.267.021-.37-.246-.432-.471L.1.942A4.979,4.979,0,0,1,0,.225C0,.041.453.02.866.02c.453,0,1.071.041,1.4.041L2.39.2l.886,9.113L4.265.573C4.327.02,5.006,0,5.48,0c.02,0,.268.02.7.02C6.86.2,7.54,5,8.138,9.645L9.189.614C9.23.2,9.93.02,10.486.02c.515,0,1.03.164,1.03.409,0,.041-.021.062-.021.082L9.765,13.864c-.1.266-.309.39-2.39.45-.33,0-.432-.409-.474-.655L5.563,5.222Z" transform="translate(20.285 13.719)"/><path class="c" d="M0,.4C0-.11.618.013.948.013c.227,0,1.277.02,1.277.492l.1,6.574H3.956L4,.689A.394.394,0,0,1,4.409.3c.144,0,1.38.061,1.38.061l.124.082c-.02.02.082,4.792.082,6.82,0,3.133-.082,4.3-.082,5.979a1.4,1.4,0,0,1-.309.533c-.762,0-.845-.061-1.545-.1-.329-.266-.268-.963-.268-1.556,0-1.065.062-2.109.062-3.174a9.186,9.186,0,0,0-1.5,0l.02,4.669c-.082.184-.68.225-1.009.225-.783,0-1.071.123-1.133-.778Z" transform="translate(33.513 13.891)"/><path class="c" d="M2.1,14.417a.468.468,0,0,1-.227-.061c-.124,0-.407-.011-.68-.021s-.556-.021-.68-.021H.459l-.087,0a.714.714,0,0,1-.248-.035A.175.175,0,0,1,0,14.11C0,13.6.175,11.119,2.431.348,2.494.163,2.925,0,3.152,0H4.408c.445,0,.728.5.845.963l0,.017c.105.372.425,1.5,1.581,12.68v.429c0,.1-.414.123-.473.123a3.42,3.42,0,0,1-.371.061H4.676l-.1-.082-.083-2.007c0-.131-.013-.144-.071-.144H4.244c-.122,0-.488.01-.876.02s-.8.021-.936.021c-.079.666-.164,1.447-.185,2.192l-.012.025C2.2,14.367,2.175,14.417,2.1,14.417ZM3.687,3.85,2.781,9.871H4.347L3.687,3.85Z" transform="translate(41.219 13.473)"/><path class="c" d="M1.607,8.4c0-1.884.123-3.993.123-5.918,0-.369-.144-.369-.33-.369H1.339c-.268,0-.536.041-.783.041C.165,2.15,0,2.13,0,1.761A14.218,14.218,0,0,1,.082.184C.082.02.453,0,1.5,0,3.111,0,5.563.082,5.645.082l.083.1c0,.021.062.881.062,1.188,0,.819-.1.84-.762.84-.412,0-.824-.1-1.236-.1,0,.758-.062,4.157-.062,4.915a33.826,33.826,0,0,1,.1,4.239c0,.348-.02,1.986-.02,2.355-.123.409-.968.409-1.3.409H2.452c-.412,0-.68,0-.8-.409,0-.8-.041-4.444-.041-5.222" transform="translate(48.739 13.822)"/><path class="c" d="M0,.164C.144-.164,2.184.02,2.184.532c-.041,4.178,0,8.335,0,12.513v.369A.223.223,0,0,1,2,13.66c-.041,0-.1.021-.144.021a6.61,6.61,0,0,1-1.318.184c-.144,0-.185.02-.268-.061-.082-.041-.123-.2-.164-.287Z" transform="translate(60.833 13.944)"/><path class="c" d="M.041,11.427A3.233,3.233,0,0,1,0,11.059v-.307C0,10.3.082,8.97.659,8.97H1.71a.546.546,0,0,1,.433.471v2.253a.55.55,0,0,0,.514.573c.639,0,.639-.553.639-.962C3.3,7.577.062,8.069.062,3.871.062,1.516,1.051,0,3.626,0,5.48,0,5.707,1.679,5.707,3.195v.368c0,.082-.021,2.355-.474,2.355h-1.2c-.309,0-.35-.369-.35-2.109a5.975,5.975,0,0,1,.02-.614V3.134c0-.635,0-1.208-.6-1.208-.618,0-1.071.737-1.071,1.741A4.359,4.359,0,0,0,3.4,6.717a6.627,6.627,0,0,1,2,4.1c0,2.15-.165,3.4-2.576,3.4A2.962,2.962,0,0,1,.638,13.106l-.515-.983Z" transform="translate(64.727 13.74)"/><g transform="translate(77.108 21.698)"><path class="a" d="M0,0H69.892V43.3H0Z"/><g class="d"><path class="e" d="M60.976,0H8.916C4.013,0,0,3.646,0,8.1V43.3l12.6-9.391C17.35,30.376,19,30.163,22.7,29.89H60.976c4.9,0,8.916-3.646,8.916-8.1V8.1c0-4.457-4.012-8.1-8.916-8.1"/></g></g><path class="c" d="M0,.4C0-.11.618.013.948.013c.227,0,1.277.02,1.277.492l.1,6.574H3.956L4,.689A.394.394,0,0,1,4.409.3c.144,0,1.38.061,1.38.061l.123.082c-.02.02.082,4.792.082,6.82,0,3.133-.082,4.3-.082,5.979a1.4,1.4,0,0,1-.309.533c-.762,0-.845-.061-1.545-.1-.329-.266-.267-.963-.267-1.556,0-1.065.062-2.109.062-3.174a9.186,9.186,0,0,0-1.5,0l.021,4.669c-.083.184-.68.225-1.009.225-.783,0-1.072.123-1.133-.778Z" transform="translate(82.471 29.256)"/><path class="c" d="M.144.328C.144.2.227,0,.391,0,1.916,0,5.233,0,5.233.328v1.5c0,.123-.123.143-.227.143H4.9L2.513,1.9c-.083,0-.144.266-.144.84,0,.962-.062,2.539.061,3.706a3.03,3.03,0,0,0,.6.041c.433,0,.845-.061,1.36-.061.02.02.185.164.185.246V8.437c0,.041-.144.123-.185.144L2.308,8.5l-.062.369v2.99l.062.225H4.945c.185.041.206.225.206.389,0,.512.083,1.659-.391,1.659h-2.1a3.8,3.8,0,0,1-.968.082c-.68,0-1.587.1-1.69-.225Z" transform="translate(90.588 29.187)"/><path class="c" d="M.68,14.253a.339.339,0,0,1-.247-.109C0,13.7.017,12,.035,10.489c0-.3.007-.577.007-.844,0-.787-.011-1.89-.021-2.956S0,4.516,0,3.727c0-.24.007-.455.013-.627,0-.124.008-.23.008-.314,0-.159,0-.629-.01-1.127C.005,1.137,0,.6,0,.41,0,.134.364,0,1.112,0a4.932,4.932,0,0,1,3.6,1.3A4.15,4.15,0,0,1,5.872,4.26,6.382,6.382,0,0,1,4.759,7.728a4.5,4.5,0,0,1-2.6,1.979l-.04.061A12.469,12.469,0,0,1,2.2,11.182c0,.071,0,.17,0,.287.011.8.034,2.461-.271,2.621l-1.154.144A.23.23,0,0,1,.68,14.253ZM2.225,1.986a.116.116,0,0,0-.086.035c-.089.091-.085.339-.081.579,0,.051,0,.1,0,.144,0,.774.016,1.557.031,2.315s.031,1.571.031,2.375V7.5c.9-.276,1.524-1.959,1.524-3.3C3.646,2.9,3.128,2.094,2.225,1.986Z" transform="translate(97.944 29.187)"/><path class="c" d="M2.071,14.044a13.346,13.346,0,0,1-1.927-.16A.217.217,0,0,1,0,13.7v-.061c.023-.746.058-2.984.1-5.817V7.815C.139,5.494.181,2.863.227.328c0-.251.44-.3.651-.32L.949,0h.68c1.84,0,3.009.527,3.68,1.659A9.35,9.35,0,0,1,6.1,6.144c.012,3.581-.039,5.835-1.2,7A3.776,3.776,0,0,1,2.071,14.044ZM2.447,2.368c-.064,0-.132,0-.2.008L2.02,11.8c0,.041.042.041.082.041a1.351,1.351,0,0,0,.236.022,1.011,1.011,0,0,0,.741-.313c.742-.75.809-2.671.8-4.05V6.553c0-.3.008-.6.016-.89.032-1.227.063-2.385-.482-2.945A1.267,1.267,0,0,0,2.447,2.368Z" transform="translate(108.41 29.146)"/><path class="c" d="M.144.328C.144.2.227,0,.391,0,1.916,0,5.233,0,5.233.328v1.5c0,.123-.123.143-.227.143H4.9L2.514,1.9c-.083,0-.144.266-.144.84,0,.962-.062,2.539.062,3.706a3.022,3.022,0,0,0,.6.041c.433,0,.845-.061,1.36-.061.02.02.185.164.185.246V8.437c0,.041-.144.123-.185.144L2.308,8.5l-.062.369v2.99l.062.225H4.945c.185.041.206.225.206.389,0,.512.082,1.659-.391,1.659h-2.1a3.809,3.809,0,0,1-.969.082c-.68,0-1.586.1-1.69-.225Z" transform="translate(116.651 29.187)"/><path class="c" d="M.041,4.444V2.15C0,1.659,0,1.024,0,.553V.1C.021.02.144,0,.186,0,.351,0,1.4.082,1.627.1c.082,0,.453.02.515.02.082.021.164.082.164.144L2.2,11.939c.247.246,2.184-.082,2.163.369v1.72l-.1.123L.041,14.028c-.082-3.175,0-6.389,0-9.584" transform="translate(124.006 29.166)"/><path class="c" d="M1.607,8.4c0-1.884.124-3.993.124-5.918,0-.369-.144-.369-.33-.369H1.34c-.268,0-.536.041-.783.041C.165,2.15,0,2.13,0,1.761A14.353,14.353,0,0,1,.082.184C.082.02.453,0,1.5,0,3.111,0,5.563.082,5.645.082l.083.1c0,.021.062.881.062,1.188,0,.819-.1.84-.762.84-.412,0-.824-.1-1.236-.1,0,.758-.062,4.157-.062,4.915a33.8,33.8,0,0,1,.1,4.239c0,.348-.021,1.986-.021,2.355-.123.409-.968.409-1.3.409H2.452c-.412,0-.68,0-.8-.409,0-.8-.041-4.444-.041-5.222" transform="translate(128.91 29.187)"/><path class="c" d="M2.1,14.417a.468.468,0,0,1-.227-.061c-.124,0-.407-.011-.68-.021s-.556-.021-.679-.021H.46l-.087,0a.716.716,0,0,1-.248-.035A.175.175,0,0,1,0,14.11C0,13.6.175,11.119,2.431.348,2.494.163,2.925,0,3.153,0H4.409c.444,0,.727.5.845.963l.005.019c.105.375.425,1.517,1.58,12.679v.429c0,.1-.414.123-.473.123a3.42,3.42,0,0,1-.37.061H4.677l-.1-.082-.082-2.007c0-.131-.013-.144-.071-.144H4.244c-.12,0-.485.009-.87.02s-.805.021-.942.021c-.079.67-.163,1.454-.185,2.192l-.011.022C2.2,14.366,2.176,14.417,2.1,14.417ZM3.687,3.85h0L2.781,9.871H4.347L3.688,3.85Z" transform="translate(135.05 28.839)"/><path class="b" d="M0,1.273a1.221,1.221,0,0,0,1.24,1.2l2.177-.046A1.226,1.226,0,0,0,4.621,1.2,1.22,1.22,0,0,0,3.381,0L1.205.046A1.227,1.227,0,0,0,0,1.273" transform="translate(2.113 14.125)"/><path class="b" d="M.05.869a1.219,1.219,0,0,0,.824,1.51L7.044,4.2a1.215,1.215,0,1,0,.694-2.33L1.567.049A1.228,1.228,0,0,0,.05.869" transform="translate(0 7.556)"/><path class="b" d="M.185.571A1.217,1.217,0,0,0,.568,2.243L8.88,7.538a1.217,1.217,0,1,0,1.3-2.055L1.873.188A1.227,1.227,0,0,0,.185.571" transform="translate(0.523)"/></svg>