<svg id="logo" xmlns="http://www.w3.org/2000/svg" xmlns:xlink="http://www.w3.org/1999/xlink" width="155.449" height="68.736" viewBox="0 0 155.449 68.736">
  <defs>
    <style>
      .cls-1 {
        fill: none;
      }

      .cls-2 {
        fill: #c0222c;
      }

      .cls-3 {
        fill: #fff;
      }

      .cls-4 {
        clip-path: url(#clip-path);
      }

      .cls-5 {
        fill: #421b59;
      }
    </style>
    <clipPath id="clip-path">
      <path id="Clip_16" data-name="Clip 16" class="cls-1" d="M0,0H73.909V45.791H0Z"/>
    </clipPath>
  </defs>
  <path id="Fill_1" data-name="Fill 1" class="cls-2" d="M8.62,0H58.951a8.62,8.62,0,0,1,8.62,8.569V45.791L55.386,35.86c-4.589-3.737-6.18-3.963-9.762-4.252h-37A8.62,8.62,0,0,1,0,23.04V8.569A8.62,8.62,0,0,1,8.62,0" transform="translate(13.861 6.696)"/>
  <path id="Fill_3" data-name="Fill 3" class="cls-3" d="M4.662,14.011c0,.369,0,.975-.392.975l-1.94.065c-.283.022-.392-.26-.457-.5L.109,1A5.265,5.265,0,0,1,0,.238C0,.043.479.021.915.021c.479,0,1.133.043,1.481.043l.131.151.937,9.637L4.51.606C4.575.021,5.294,0,5.795,0c.022,0,.283.021.741.021C7.255.216,7.974,5.283,8.606,10.2L9.717.65C9.76.216,10.5.021,11.089.021c.545,0,1.09.173,1.09.433,0,.043-.022.065-.022.087l-1.83,14.119c-.109.282-.327.412-2.527.476-.349,0-.457-.433-.5-.693L5.882,5.522Z" transform="translate(21.451 14.508)"/>
  <path id="Fill_5" data-name="Fill 5" class="cls-3" d="M0,.425C0-.117.654.014,1,.014c.24,0,1.351.021,1.351.52l.109,6.951H4.183L4.227.728A.416.416,0,0,1,4.662.317c.152,0,1.459.065,1.459.065l.131.087c-.022.021.087,5.067.087,7.212,0,3.313-.087,4.547-.087,6.323a1.477,1.477,0,0,1-.327.563c-.806,0-.893-.065-1.634-.108-.348-.282-.283-1.018-.283-1.646,0-1.126.066-2.231.066-3.357a9.714,9.714,0,0,0-1.59,0l.022,4.938c-.087.195-.719.238-1.067.238-.828,0-1.133.13-1.2-.823Z" transform="translate(35.439 14.689)"/>
  <path id="Fill_7" data-name="Fill 7" class="cls-3" d="M2.222,15.246a.5.5,0,0,1-.24-.065c-.131,0-.43-.011-.719-.022s-.588-.022-.719-.022H.486l-.092,0A.755.755,0,0,1,.131,15.1.186.186,0,0,1,0,14.921C0,14.387.185,11.758,2.571.368,2.637.172,3.093,0,3.333,0H4.662c.471,0,.77.526.894,1.018l.005.018c.111.394.449,1.591,1.672,13.409V14.9c0,.1-.438.13-.5.13a3.617,3.617,0,0,1-.392.065H4.945l-.109-.087-.088-2.122c0-.138-.014-.152-.075-.152H4.487c-.129,0-.516.01-.927.021s-.846.022-.99.022c-.084.7-.173,1.53-.2,2.317l-.013.026C2.326,15.193,2.3,15.246,2.222,15.246ZM3.9,4.072l-.958,6.367H4.6L3.9,4.072Z" transform="translate(43.588 14.248)"/>
  <path id="Fill_9" data-name="Fill 9" class="cls-3" d="M1.7,8.879c0-1.992.131-4.223.131-6.258,0-.39-.152-.39-.349-.39H1.416c-.283,0-.567.043-.828.043C.174,2.274,0,2.252,0,1.863A15.035,15.035,0,0,1,.087.195C.087.021.479,0,1.59,0c1.7,0,4.292.087,4.379.087l.087.108c0,.022.065.931.065,1.256,0,.866-.11.888-.806.888-.435,0-.872-.108-1.307-.108,0,.8-.065,4.4-.065,5.2a35.771,35.771,0,0,1,.108,4.483c0,.368-.022,2.1-.022,2.49-.131.433-1.024.433-1.372.433H2.593c-.436,0-.719,0-.85-.433,0-.844-.043-4.7-.043-5.522" transform="translate(51.54 14.616)"/>
  <path id="Fill_11" data-name="Fill 11" class="cls-3" d="M0,.173C.152-.173,2.309.022,2.309.563c-.044,4.418,0,8.814,0,13.232v.39a.235.235,0,0,1-.2.26c-.043,0-.108.022-.153.022a6.99,6.99,0,0,1-1.394.195c-.152,0-.2.021-.283-.065-.087-.043-.131-.217-.174-.3Z" transform="translate(64.33 14.746)"/>
  <path id="Fill_13" data-name="Fill 13" class="cls-3" d="M.044,12.084A3.419,3.419,0,0,1,0,11.694V11.37c0-.476.087-1.884.7-1.884H1.808a.577.577,0,0,1,.458.5v2.382a.582.582,0,0,0,.544.606c.676,0,.676-.585.676-1.018,0-3.941-3.42-3.421-3.42-7.861C.065,1.6,1.111,0,3.834,0c1.961,0,2.2,1.776,2.2,3.379v.389c0,.087-.022,2.491-.5,2.491H4.27c-.327,0-.37-.39-.37-2.231a6.319,6.319,0,0,1,.022-.65V3.314c0-.672,0-1.278-.632-1.278-.654,0-1.133.779-1.133,1.841A4.609,4.609,0,0,0,3.595,7.1a7.008,7.008,0,0,1,2.113,4.331c0,2.274-.174,3.595-2.724,3.595A3.132,3.132,0,0,1,.675,13.86L.131,12.821Z" transform="translate(68.447 14.529)"/>
  <g id="Group_17" data-name="Group 17" transform="translate(81.54 22.945)">
    <path id="Clip_16-2" data-name="Clip 16" class="cls-1" d="M0,0H73.909V45.791H0Z"/>
    <g id="Group_17-2" data-name="Group 17" class="cls-4">
      <path id="Fill_15" data-name="Fill 15" class="cls-5" d="M64.481,0H9.429C4.244,0,0,3.856,0,8.568V45.791L13.328,35.86c5.02-3.738,6.76-3.963,10.677-4.252H64.481c5.186,0,9.428-3.856,9.428-8.568V8.568C73.909,3.856,69.667,0,64.481,0"/>
    </g>
  </g>
  <path id="Fill_18" data-name="Fill 18" class="cls-3" d="M0,.425C0-.117.654.014,1,.014c.24,0,1.351.021,1.351.52l.109,6.951H4.183L4.227.728A.417.417,0,0,1,4.662.317c.153,0,1.46.065,1.46.065l.131.087c-.022.021.087,5.067.087,7.212,0,3.313-.087,4.547-.087,6.323a1.477,1.477,0,0,1-.327.563c-.806,0-.893-.065-1.634-.108-.348-.282-.283-1.018-.283-1.646,0-1.126.065-2.231.065-3.357a9.714,9.714,0,0,0-1.59,0l.022,4.938c-.087.195-.719.238-1.067.238-.828,0-1.133.13-1.2-.823Z" transform="translate(87.211 30.938)"/>
  <path id="Fill_20" data-name="Fill 20" class="cls-3" d="M.153.347C.153.217.24,0,.414,0c1.613,0,5.12,0,5.12.347V1.927c0,.13-.131.151-.24.151H5.185L2.658,2.014c-.087,0-.152.282-.152.888,0,1.018-.065,2.685.065,3.919a3.2,3.2,0,0,0,.632.043c.458,0,.894-.065,1.438-.065.022.021.2.173.2.26V8.922c0,.043-.153.13-.2.152l-2.2-.087-.065.39v3.162l.065.238H5.229c.2.043.217.238.217.411,0,.541.087,1.754-.414,1.754H2.811a4.023,4.023,0,0,1-1.024.086c-.719,0-1.678.108-1.787-.238Z" transform="translate(95.795 30.865)"/>
  <path id="Fill_22" data-name="Fill 22" class="cls-3" d="M.719,15.073a.359.359,0,0,1-.261-.115C0,14.491.018,12.685.037,11.092c0-.315.007-.61.007-.892,0-.833-.011-2-.022-3.126S0,4.775,0,3.941c0-.254.008-.481.014-.663,0-.131.008-.243.008-.332,0-.168-.005-.665-.01-1.191C.006,1.2,0,.634,0,.433,0,.142.385,0,1.176,0A5.216,5.216,0,0,1,4.984,1.375,4.389,4.389,0,0,1,6.209,4.5,6.749,6.749,0,0,1,5.033,8.173a4.758,4.758,0,0,1-2.746,2.093l-.043.065a13.186,13.186,0,0,1,.087,1.494c0,.076,0,.179,0,.3.012.845.036,2.6-.287,2.771l-1.22.152A.243.243,0,0,1,.719,15.073ZM2.353,2.1a.123.123,0,0,0-.091.037c-.094.1-.09.358-.085.612,0,.054,0,.1,0,.152,0,.819.017,1.647.033,2.448.016.817.033,1.661.033,2.512v.065c.949-.292,1.611-2.072,1.611-3.486C3.855,3.067,3.308,2.215,2.353,2.1Z" transform="translate(103.573 30.864)"/>
  <path id="Fill_24" data-name="Fill 24" class="cls-3" d="M2.19,14.851a14.114,14.114,0,0,1-2.038-.169A.23.23,0,0,1,0,14.488v-.065c.025-.789.062-3.155.109-6.151V8.264C.148,5.809.191,3.027.24.346.24.081.705.032.929.009L1,0h.719C3.667,0,4.9.557,5.613,1.754A9.888,9.888,0,0,1,6.449,6.5c.013,3.787-.041,6.17-1.265,7.4A3.993,3.993,0,0,1,2.19,14.851ZM2.588,2.5c-.068,0-.139,0-.212.009l-.24,9.961c0,.044.044.044.087.044a1.429,1.429,0,0,0,.249.023,1.069,1.069,0,0,0,.784-.331c.785-.793.856-2.824.841-4.283v-1c0-.313.008-.632.016-.941.034-1.3.066-2.522-.51-3.114A1.34,1.34,0,0,0,2.588,2.5Z" transform="translate(114.641 30.821)"/>
  <path id="Fill_26" data-name="Fill 26" class="cls-3" d="M.153.347C.153.217.24,0,.414,0c1.613,0,5.12,0,5.12.347V1.927c0,.13-.131.151-.24.151H5.186L2.658,2.014c-.087,0-.153.282-.153.888,0,1.018-.065,2.685.065,3.919a3.2,3.2,0,0,0,.631.043c.458,0,.894-.065,1.438-.065.022.021.2.173.2.26V8.922c0,.043-.153.13-.2.152l-2.2-.087-.065.39v3.162l.065.238H5.229c.2.043.218.238.218.411,0,.541.087,1.754-.414,1.754H2.811a4.027,4.027,0,0,1-1.024.086c-.719,0-1.677.108-1.787-.238Z" transform="translate(123.356 30.865)"/>
  <path id="Fill_28" data-name="Fill 28" class="cls-3" d="M.044,4.7V2.274C0,1.754,0,1.083,0,.585V.108C.022.021.153,0,.2,0,.371,0,1.481.087,1.721.108c.087,0,.479.021.545.021.087.022.174.087.174.152L2.331,12.625c.261.26,2.309-.087,2.288.39v1.819l-.11.13-4.466-.13c-.087-3.357,0-6.757,0-10.135" transform="translate(131.134 30.843)"/>
  <path id="Fill_30" data-name="Fill 30" class="cls-3" d="M1.7,8.879c0-1.992.131-4.223.131-6.258,0-.39-.153-.39-.349-.39H1.417c-.284,0-.567.043-.828.043C.174,2.274,0,2.252,0,1.863A15.178,15.178,0,0,1,.087.195C.087.021.479,0,1.59,0c1.7,0,4.292.087,4.379.087l.087.108c0,.022.065.931.065,1.256,0,.866-.109.888-.806.888-.435,0-.871-.108-1.307-.108,0,.8-.065,4.4-.065,5.2a35.741,35.741,0,0,1,.109,4.483c0,.368-.022,2.1-.022,2.49-.131.433-1.024.433-1.372.433H2.593c-.435,0-.719,0-.849-.433,0-.844-.044-4.7-.044-5.522" transform="translate(136.319 30.865)"/>
  <path id="Fill_32" data-name="Fill 32" class="cls-3" d="M2.222,15.246a.5.5,0,0,1-.24-.065c-.131,0-.43-.011-.719-.022s-.588-.022-.718-.022H.486l-.092,0A.757.757,0,0,1,.132,15.1.185.185,0,0,1,0,14.921C0,14.387.185,11.758,2.571.368,2.637.172,3.093,0,3.334,0H4.663c.469,0,.769.526.894,1.018l.005.02c.111.4.45,1.6,1.671,13.407V14.9c0,.1-.438.13-.5.13a3.616,3.616,0,0,1-.391.065H4.946l-.109-.087L4.75,12.885c0-.138-.014-.152-.075-.152H4.487c-.127,0-.513.01-.92.021s-.852.022-1,.022c-.083.708-.173,1.538-.2,2.317l-.011.023C2.327,15.192,2.3,15.246,2.222,15.246ZM3.9,4.071h0l-.959,6.367H4.6L3.9,4.072Z" transform="translate(142.812 30.496)"/>
  <path id="Fill_34" data-name="Fill 34" class="cls-2" d="M0,1.347A1.291,1.291,0,0,0,1.312,2.617l2.3-.049a1.3,1.3,0,0,0,1.273-1.3A1.29,1.29,0,0,0,3.576,0l-2.3.049A1.3,1.3,0,0,0,0,1.347" transform="translate(2.235 14.937)"/>
  <path id="Fill_36" data-name="Fill 36" class="cls-2" d="M.053.919a1.289,1.289,0,0,0,.872,1.6L7.448,4.437a1.285,1.285,0,1,0,.733-2.464L1.658.052a1.3,1.3,0,0,0-1.6.867" transform="translate(0 7.991)"/>
  <path id="Fill_38" data-name="Fill 38" class="cls-2" d="M.2.6A1.287,1.287,0,0,0,.6,2.372l8.79,5.6A1.287,1.287,0,1,0,10.771,5.8L1.98.2A1.3,1.3,0,0,0,.2.6" transform="translate(0.553 0)"/>
</svg>
